<?xml version="1.0" encoding="utf-8"?>
<!-- Generator: Adobe Illustrator 24.2.3, SVG Export Plug-In . SVG Version: 6.00 Build 0)  -->
<svg version="1.1" id="Vrstva_1" xmlns="http://www.w3.org/2000/svg" xmlns:xlink="http://www.w3.org/1999/xlink" x="0px" y="0px"
	 viewBox="0 0 104 101" style="enable-background:new 0 0 104 101;" xml:space="preserve">
<style type="text/css">
	.st0{fill:#F982C9;}
	.st1{fill:#1D1D1B;}
	.st2{fill:#FFFFFF;}
</style>
<ellipse class="st0" cx="51.41" cy="49.42" rx="40.1" ry="38.72"/>
<g>
	<path class="st1" d="M-42.8,0.74l-0.01-0.02c-1,0-1.79-0.29-2.38-0.88s-0.88-1.38-0.88-2.38v-5.26h1.6v5.23
		c0,0.57,0.15,1.02,0.45,1.34c0.3,0.33,0.71,0.49,1.22,0.49c0.51,0,0.92-0.16,1.22-0.49c0.3-0.33,0.45-0.77,0.45-1.33v-5.23h1.56
		v5.26c0,1-0.29,1.79-0.87,2.38S-41.81,0.74-42.8,0.74z"/>
	<path class="st1" d="M-32.48-7.77l0.01,1.43h-2.15v6.97h-1.56v-6.97h-2.15v-1.43H-32.48z"/>
	<path class="st1" d="M-26,0.62l-3.06-3.6h-0.62v3.61h-1.52v-8.4h3.54c0.78,0,1.42,0.22,1.9,0.67s0.72,1.03,0.72,1.75
		c0,0.65-0.2,1.19-0.59,1.61C-26.04-3.31-26.56-3.06-27.2-3l3.24,3.62H-26z M-29.69-6.5v2.42h1.68c0.41,0,0.73-0.11,0.97-0.33
		c0.24-0.22,0.36-0.51,0.36-0.88c0-0.37-0.12-0.66-0.36-0.88c-0.24-0.22-0.56-0.33-0.97-0.33H-29.69z"/>
	<path class="st1" d="M-18.14-7.77h1.56v8.4h-1.56v-3.78h-3.41v3.78h-1.56v-8.4h1.56v3.19h3.41V-7.77z"/>
	<path class="st1" d="M-39.8,11.95l-0.01,0.01c0.06,0.94-0.22,1.71-0.83,2.3c-0.61,0.59-1.41,0.89-2.41,0.89
		c-0.98,0-1.78-0.29-2.39-0.88s-0.92-1.33-0.92-2.24c0-0.92,0.31-1.67,0.92-2.25c0.62-0.58,1.41-0.87,2.39-0.87
		c0.78,0,1.44,0.19,1.99,0.56s0.91,0.88,1.09,1.52h-1.61c-0.14-0.25-0.33-0.45-0.59-0.59c-0.26-0.15-0.55-0.22-0.88-0.22
		c-0.51,0-0.93,0.17-1.27,0.52s-0.5,0.78-0.5,1.32s0.17,0.98,0.5,1.32c0.33,0.34,0.76,0.52,1.29,0.52c0.54,0,0.96-0.18,1.28-0.53
		c0.32-0.36,0.45-0.81,0.39-1.37H-39.8z M-44.15,8.22l-1.3-2.02h1.46l0.92,1.3l0.92-1.3h1.46l-1.31,2.02H-44.15z"/>
	<path class="st1" d="M-38.9,8.22l1.3-2.02h1.73l-1.51,2.02H-38.9z M-38.59,15.03v-6h1.5v6H-38.59z"/>
	<path class="st1" d="M-32.87,15.15h-0.01c-0.9,0-1.64-0.23-2.22-0.68c-0.58-0.45-0.87-1.05-0.89-1.79h1.54
		c0.01,0.39,0.16,0.71,0.45,0.94s0.68,0.35,1.16,0.35c0.38,0,0.69-0.08,0.92-0.23c0.23-0.15,0.35-0.36,0.35-0.61
		c0-0.35-0.24-0.56-0.73-0.62l-1.39-0.17c-1.19-0.15-1.79-0.67-1.79-1.56c0-0.57,0.22-1.02,0.66-1.36c0.44-0.34,1.04-0.51,1.79-0.51
		c0.75,0,1.35,0.15,1.79,0.45c0.44,0.3,0.7,0.73,0.78,1.28h-1.52c-0.13-0.42-0.48-0.62-1.04-0.62c-0.3,0-0.53,0.06-0.71,0.18
		c-0.18,0.12-0.26,0.29-0.26,0.5c0,0.32,0.24,0.51,0.71,0.58l1.38,0.17c1.23,0.15,1.85,0.69,1.85,1.61c0,0.63-0.26,1.14-0.77,1.52
		C-31.35,14.95-32.03,15.15-32.87,15.15z"/>
	<path class="st1" d="M-28.91,15.03V6.38h1.5v8.64H-28.91z"/>
	<path class="st1" d="M-22.84,15.15c-0.98,0-1.78-0.29-2.4-0.88s-0.94-1.33-0.94-2.24s0.31-1.66,0.94-2.24s1.42-0.88,2.4-0.88
		c0.97,0,1.76,0.29,2.39,0.88s0.94,1.33,0.94,2.24s-0.31,1.66-0.94,2.24S-21.87,15.15-22.84,15.15z M-24.14,13.35
		c0.34,0.35,0.77,0.52,1.3,0.52c0.53,0,0.96-0.17,1.31-0.52c0.34-0.35,0.52-0.79,0.52-1.33s-0.17-0.98-0.52-1.33
		c-0.34-0.35-0.78-0.52-1.31-0.52c-0.53,0-0.96,0.17-1.3,0.52s-0.51,0.79-0.51,1.33S-24.48,13-24.14,13.35z"/>
</g>
<rect x="97.81" y="-65.02" style="fill:none;" width="68.17" height="28.8"/>
<text transform="matrix(1 0 0 1 97.8084 -56.3648)"><tspan x="0" y="0" class="st1" style="font-family:'Spoof-Medium'; font-size:12px;">UTRH</tspan><tspan x="0" y="14.4" class="st1" style="font-family:'Spoof-Medium'; font-size:12px;">číslo</tspan></text>
<rect x="-49.12" y="-4.92" class="st2" width="33.83" height="2.07"/>
<path class="st2" d="M32.77,39h-2.03v0.41c0,1.27,0.37,2.28,1.11,3.02c0.74,0.74,1.75,1.11,3.02,1.11l0.01,0.03
	c1.26,0,2.26-0.37,2.99-1.12c0.74-0.75,1.11-1.75,1.11-3.02V39H32.77z"/>
<path class="st2" d="M55.8,36.37h1.9v-0.38c0-1.19-0.35-2.13-1.04-2.83c-0.7-0.7-1.64-1.04-2.83-1.04l-0.01-0.03
	c-1.18,0-2.12,0.35-2.81,1.05c-0.69,0.7-1.04,1.65-1.04,2.84v0.4H55.8z"/>
<rect x="37" y="32.75" class="st2" width="1.98" height="3.62"/>
<rect x="30.74" y="32.73" class="st2" width="2.03" height="3.64"/>
<rect x="43.3" y="39" class="st2" width="1.98" height="4.41"/>
<polygon class="st2" points="45.28,34.56 48.01,34.56 47.99,32.75 40.57,32.75 40.57,34.56 43.3,34.56 43.3,36.37 45.28,36.37 "/>
<rect x="49.97" y="39" class="st2" width="1.94" height="4.43"/>
<polygon class="st2" points="56.59,43.42 59.18,43.42 55.23,39 52.83,39 "/>
<rect x="60.89" y="39" class="st2" width="1.98" height="4.41"/>
<rect x="66.2" y="39" class="st2" width="1.98" height="4.41"/>
<rect x="60.89" y="32.75" class="st2" width="1.98" height="3.62"/>
<rect x="66.2" y="32.75" class="st2" width="1.98" height="3.62"/>
<polygon class="st2" points="37.6,50.5 35.74,50.5 34.57,52.15 33.39,50.5 31.53,50.5 33.18,53.06 35.94,53.06 "/>
<path class="st2" d="M36.22,59.55c-0.4,0.45-0.94,0.68-1.62,0.68c-0.67,0-1.22-0.22-1.64-0.66c-0.42-0.44-0.63-0.99-0.63-1.68
	s0.21-1.24,0.63-1.68c0.42-0.44,0.96-0.65,1.61-0.65c0.42,0,0.79,0.09,1.11,0.28c0.32,0.19,0.57,0.44,0.75,0.75h2.04
	c-0.22-0.81-0.68-1.46-1.38-1.93c-0.7-0.48-1.54-0.72-2.52-0.72c-1.24,0-2.25,0.37-3.03,1.11c-0.78,0.74-1.17,1.69-1.17,2.86
	c0,1.16,0.39,2.11,1.17,2.85c0.78,0.74,1.79,1.11,3.04,1.11c1.27,0,2.29-0.38,3.06-1.13c0.77-0.75,1.12-1.73,1.05-2.93l0.01-0.01
	h-1.98C36.79,58.51,36.62,59.1,36.22,59.55z"/>
<rect x="41.24" y="54.08" class="st2" width="1.9" height="7.62"/>
<polygon class="st2" points="44.68,50.5 42.48,50.5 40.84,53.06 42.76,53.06 "/>
<path class="st2" d="M50.71,57.15l-1.75-0.21c-0.6-0.08-0.9-0.32-0.9-0.73c0-0.27,0.11-0.49,0.34-0.64c0.22-0.15,0.52-0.23,0.9-0.23
	c0.72,0,1.16,0.26,1.33,0.79h1.94c-0.1-0.7-0.43-1.24-0.99-1.62c-0.56-0.38-1.32-0.57-2.27-0.57c-0.96,0-1.71,0.22-2.27,0.65
	c-0.56,0.43-0.84,1.01-0.84,1.73c0,1.13,0.76,1.79,2.27,1.98l1.77,0.21c0.62,0.08,0.93,0.35,0.93,0.79c0,0.33-0.15,0.58-0.44,0.78
	c-0.29,0.19-0.69,0.29-1.17,0.29c-0.61,0-1.1-0.15-1.47-0.45c-0.37-0.3-0.56-0.7-0.57-1.2h-1.95c0.02,0.95,0.4,1.71,1.13,2.28
	c0.73,0.57,1.67,0.86,2.82,0.86h0.02c1.07,0,1.92-0.24,2.58-0.73c0.65-0.49,0.98-1.13,0.98-1.94
	C53.06,58.02,52.27,57.34,50.71,57.15z"/>
<rect x="54.53" y="50.73" class="st2" width="1.9" height="10.97"/>
<path class="st2" d="M66.28,55.04c-0.79-0.74-1.8-1.11-3.03-1.11c-1.24,0-2.26,0.37-3.05,1.11s-1.19,1.69-1.19,2.85
	s0.4,2.11,1.19,2.85s1.81,1.11,3.05,1.11c1.23,0,2.24-0.37,3.03-1.11s1.19-1.69,1.19-2.85S67.07,55.79,66.28,55.04z"/>
</svg>
